<?xml version="1.0" encoding="utf-8"?>
<!-- Generator: Adobe Illustrator 21.0.2, SVG Export Plug-In . SVG Version: 6.00 Build 0)  -->
<svg version="1.1" xmlns="http://www.w3.org/2000/svg" xmlns:xlink="http://www.w3.org/1999/xlink" x="0px" y="0px"
	 viewBox="0 0 500 500" style="enable-background:new 0 0 500 500;" xml:space="preserve">
<style type="text/css">
	.st0{fill:#FED136;}
	.st1{fill:#FFFFFF;}
	.st2{font-family:'OpenSans-Bold';}
	.st3{font-size:172px;}
	.st4{font-family:'OpenSans-Semibold';}
	.st5{font-size:48px;}
</style>
<g id="Слой_1">
	<path id="XMLID_1_" class="st0" d="M438.9,378.6L263.2,480c-11,6.3-24.5,6.3-35.5,0L52.2,378.6c-11-6.3-17.7-18-17.7-30.7l0-202.8
		c0-12.7,6.8-24.4,17.7-30.7L227.8,13c11-6.3,24.5-6.3,35.5,0l175.6,101.4c11,6.3,17.7,18,17.7,30.7l0,202.8
		C456.6,360.6,449.8,372.3,438.9,378.6z"/>
</g>
<g id="Слой_1__x28_копия_x29_">
</g>
<g id="Слой_5">
</g>
<g id="Слой_2">
	<text transform="matrix(1 0 0 1 101 264)" class="st1 st2 st3">404</text>
	<text transform="matrix(1 0 0 1 83.7109 335)"><tspan x="0" y="0" class="st1 st4 st5">Что-то пошло</tspan><tspan x="70.4" y="57.6" class="st1 st4 st5">не так :(</tspan></text>
</g>
</svg>
