<?xml version="1.0" encoding="utf-8"?>
<!-- Generator: Adobe Illustrator 21.0.2, SVG Export Plug-In . SVG Version: 6.00 Build 0)  -->
<svg version="1.1" id="Слой_1" xmlns="http://www.w3.org/2000/svg" xmlns:xlink="http://www.w3.org/1999/xlink" x="0px" y="0px"
	 viewBox="0 0 300 300" style="enable-background:new 0 0 300 300;" xml:space="preserve">
<style type="text/css">
	.st0{fill:#FFFFFF;}
</style>
<path class="st0" d="M213.1,144.6c-9.9-8.8-26.7-16.1-50.5-21.8V85.4c6.1,0.2,10.8,2.1,14,5.9c3.3,3.8,5.1,9.3,5.5,16.5h43.2
	c-0.7-16.9-6.4-30-17.1-39.4c-10.8-9.4-25.8-14.4-45-14.9V37.9h-19.7v15.9c-20.2,0.4-36.2,5.4-48.1,15.1
	c-11.9,9.7-17.8,22.4-17.8,38.2c0,14.2,5,25.6,14.9,34.2c9.9,8.6,26.1,15.4,48.5,20.3l-0.1,40.7c-6.7-0.2-11.6-2.4-14.8-6.5
	c-3.2-4.1-5.1-10.9-5.6-20.2H75c0.2,18.5,6,33,17.6,43.5c11.6,10.5,27.9,16.1,49,17v21h18.9v-20.7c22.5-1.3,39.4-6.6,50.6-15.9
	c11.2-9.3,16.8-22.6,16.8-40C228,165.3,223,153.4,213.1,144.6z M144.6,118.5c-8.3-2.1-14.1-4.4-17.5-7c-3.3-2.6-5-6-5-10.2
	c0-5.5,1.8-9.6,5.4-12.3c3.6-2.7,8.9-4.1,16.1-4.1h1V118.5z M177.2,198.2c-4.1,2.8-10.1,4.2-17.9,4.2v-36.1
	c9.1,2.6,15.4,5.2,18.9,8.1c3.5,2.8,5.2,6.6,5.2,11.4C183.3,191.2,181.3,195.4,177.2,198.2z"/>
</svg>
