<?xml version="1.0" encoding="utf-8"?>
<!-- Generator: Adobe Illustrator 19.0.0, SVG Export Plug-In . SVG Version: 6.00 Build 0)  -->
<svg version="1.1" xmlns="http://www.w3.org/2000/svg" xmlns:xlink="http://www.w3.org/1999/xlink" x="0px" y="0px"
	 viewBox="0 0 500 500" style="enable-background:new 0 0 500 500;" xml:space="preserve">
<style type="text/css">
	.st0{fill:#FED136;}
	.st1{clip-path:url(#XMLID_39_);fill:#DDB907;}
	.st2{fill:#FFFFFF;}
</style>
<g id="Слой_1">
	<path id="XMLID_1_" class="st0" d="M438.9,378.6L263.2,480c-11,6.3-24.5,6.3-35.5,0L52.2,378.6c-11-6.3-17.7-18-17.7-30.7l0-202.8
		c0-12.7,6.8-24.4,17.7-30.7L227.8,13c11-6.3,24.5-6.3,35.5,0l175.6,101.4c11,6.3,17.7,18,17.7,30.7l0,202.8
		C456.6,360.6,449.8,372.3,438.9,378.6z"/>
</g>
<g id="Слой_1__x28_копия_x29_">
	<g id="XMLID_16_">
		<defs>
			<path id="XMLID_13_" d="M438.9,378.6L263.2,480c-11,6.3-24.5,6.3-35.5,0L52.2,378.6c-11-6.3-17.7-18-17.7-30.7l0-202.8
				c0-12.7,6.8-24.4,17.7-30.7L227.8,13c11-6.3,24.5-6.3,35.5,0l175.6,101.4c11,6.3,17.7,18,17.7,30.7l0,202.8
				C456.6,360.6,449.8,372.3,438.9,378.6z"/>
		</defs>
		<clipPath id="XMLID_39_">
			<use xlink:href="#XMLID_13_"  style="overflow:visible;"/>
		</clipPath>
		<path id="XMLID_15_" class="st1" d="M141.2,311.4L297,206l-32.6-70l192.3,115.5l4.9,119.2l-111.5,59.2L141.2,311.4z M278,218.8
			l19-12.8l-19.4-41.8L278,218.8z"/>
	</g>
</g>
<g id="Слой_5">
	<circle id="XMLID_2_" class="st0" cx="321" cy="252" r="67"/>
	<ellipse id="XMLID_14_" class="st0" cx="185.4" cy="252" rx="72.5" ry="67"/>
</g>
<g id="Слой_2">
	<polygon id="XMLID_11_" class="st2" points="206.1,259.9 188.3,259.9 188.3,277.6 171.4,277.6 171.4,259.9 153.7,259.9 153.7,243 
		171.4,243 171.4,225.2 188.3,225.2 188.3,243 206.1,243 	"/>
	<circle id="XMLID_10_" class="st2" cx="301.5" cy="251.4" r="9.5"/>
	<circle id="XMLID_9_" class="st2" cx="321" cy="271" r="9.5"/>
	<circle id="XMLID_8_" class="st2" cx="321" cy="231.9" r="9.5"/>
	<circle id="XMLID_7_" class="st2" cx="340.6" cy="251.4" r="9.5"/>
	<path id="XMLID_4_" class="st2" d="M321,180c-14.8,0-28.9,4.6-40.6,12.7c0-22.2-5.2-42.6-16-56.8c37,86.4-51.1,220.8-125.8,158.9
		c-11.5-10.9-18.7-26.4-18.7-43.5c0-33.1,26.9-60,60-60c22.4,0,42.7,12.3,53.1,32.2l1.6,3.1h21.7c1.5-4.2,2.9-8.5,4-12.8
		c-0.3,0.5-0.6,0.9-0.9,1.4h-18.1c-12.8-21.8-36.1-35.2-61.5-35.2c-39.4,0-71.4,32-71.4,71.4c0,39.4,32,71.4,71.4,71.4
		c11.4,0,22.4-2.7,32.1-7.6h0c13.7-6.5,25.3-16.1,34.9-27.6h12.5c12.8,21.8,36.1,35.2,61.5,35.2c39.4,0,71.4-32,71.4-71.4
		C392.4,212.1,360.4,180,321,180z M321,311.4c-22.4,0-42.7-12.3-53.1-32.2l-1.6-3.1h-10.8c13.5-20.3,21.6-44.6,24.1-68.1
		c11-10.5,25.7-16.6,41.5-16.6c33.1,0,60,26.9,60,60C381,284.5,354.1,311.4,321,311.4z"/>
</g>
</svg>
