<?xml version="1.0" encoding="utf-8"?>
<!-- Generator: Adobe Illustrator 21.0.2, SVG Export Plug-In . SVG Version: 6.00 Build 0)  -->
<svg version="1.1" id="Слой_1" xmlns="http://www.w3.org/2000/svg" xmlns:xlink="http://www.w3.org/1999/xlink" x="0px" y="0px"
	 viewBox="0 0 300 300" style="enable-background:new 0 0 300 300;" xml:space="preserve">
<style type="text/css">
	.st0{fill:#FFFFFF;stroke:#FFFFFF;stroke-miterlimit:10;}
</style>
<path class="st0" d="M89.9,193.9c-16.7,0-30.3,13.6-30.3,30.3c0,16.7,13.5,30.3,30.3,30.3c16.7,0,30.3-13.6,30.3-30.3
	C120.3,207.5,106.7,193.9,89.9,193.9z M89.9,233.3c-5,0-9.1-4-9.1-9.1c0-5,4.1-9,9.1-9c5,0,9.1,4,9.1,9
	C99,229.2,95,233.3,89.9,233.3z"/>
<path class="st0" d="M181.5,193.9c-16.7,0-30.3,13.6-30.3,30.3c0,16.7,13.5,30.3,30.3,30.3c16.7,0,30.3-13.6,30.3-30.3
	C211.8,207.5,198.2,193.9,181.5,193.9z M181.5,233.3c-5,0-9.1-4-9.1-9.1c0-5,4.1-9,9.1-9c5,0,9.1,4,9.1,9
	C190.6,229.2,186.6,233.3,181.5,233.3z"/>
<path class="st0" d="M298.7,38.7c-1-0.6-2.2-1-3.7-1h-55.8L234.1,59l-1.1,4.6H21.6l28.6,118.3h174.9L254.5,60h37.9
	c2.6,0,4.7-1.1,5-2.7L300,41C300.1,40.2,299.6,39.3,298.7,38.7z M218.2,84.5l-3.1,3.1l2.1,2.1l-2.1-2.1l-2.9,2.9l2.9-3l-3.1-3.1
	H218.2z M166.4,84.5l-0.8,0.8l9.4,9.4l7.1-7.1l-3.1-3.1h6.3l-3.1,3.1l2.1,2.1l-2.1-2.1l-7.1,7.1l6.4,6.4l-6.4-6.3l-9.4,9.4l3.9,3.9
	l-3.9-3.9l-7.1,7.1l4.2,4.2l-4.3-4.2l-9.4,9.4l4.5,4.5l-4.5-4.5l0,0l-9.4-9.4l-7,7l9.4,9.4l0,0l3.8,3.8l-3.8-3.8l-9.4,9.4l5.5,5.5
	l-5.5-5.5l0,0l-9.4-9.4l-3.2,3.2l3.2-3.2l0,0l9.4-9.4l0,0l7-7l0,0l9.4-9.4l0,0l7-7l0,0l9.4-9.4l0,0L166.4,84.5L166.4,84.5z
	 M116.1,153.6L116.1,153.6l-6.3,6.4L116.1,153.6l-9.4-9.4l-3.5,3.5l3.5-3.5l0,0l9.4-9.4l-7-7l-9.4,9.4l0,0l-4.9,5l4.9-5l-9.4-9.4
	l-5.2,5.1l5.1-5.1l0,0l9.4-9.4l-3.5-3.5l3.5,3.5l0,0l9.4,9.4l0,0l7,7l0,0l9.4,9.4l0,0l3.2,3.2l-3.2-3.2L116.1,153.6z M73.7,111.2
	L73.7,111.2l-5.2-5.1L73.7,111.2l9.4-9.4l-4.2-4.3l4.2,4.2l0,0l9.4,9.4l7-7l-9.4-9.4l0,0L86,90.5l4.3,4.2l9.4-9.4l0,0l0.6-0.6
	l-0.6,0.6l9.4,9.4l4.3-4.2l-4.2,4.2l0,0l-9.4,9.4l0,0l-7,7l0,0l-9.4,9.4l0,0l-2.8,2.8l2.8-2.8L73.7,111.2z M125.5,111.2L125.5,111.2
	l5,4.9L125.5,111.2l-9.4,9.4l0,0l-5,4.9l4.9-5l-9.4-9.4l0,0l-5-5l5,4.9l9.4-9.4l0,0l3.9-3.9l-3.8,3.9L125.5,111.2z M152.3,84.5
	l-3.1,3.1l3.2,3.2l-3.2-3.2l0,0l-3.2-3.1H152.3z M119.3,84.5l-3.1,3.1l7,7l9.4-9.4l0,0l0.4-0.4l-0.4,0.4l9.4,9.4l6.4-6.3l-6.4,6.4
	l0,0l-9.4,9.4l3.5,3.5l-3.5-3.5l0,0l-9.4-9.4l0,0l-7-7.1l0,0l-3.1-3.1H119.3z M50.1,84.5h3.2l-2.7,2.7L50.1,84.5z M54.4,106l5.2,5.2
	l7-7l-9.4-9.4L53,99l-2.2-10.7l0,0L53,99l4.3-4.3l-3.9-3.9l3.9,3.8l9.4-9.4l-0.5-0.6l0.6,0.6l0,0l9.4,9.4l7-7L80,84.5h6.3l-3.1,3.1
	l0,0l-7,7l0,0l-9.4,9.4l0,0l-7,7l0,0l-3.4,3.5L54.4,106z M77.3,161.9l-1.2-1.2l-1.2,1.2h-9.1l-1.6-8.1l2.6-2.6l-0.8-0.8l0.8,0.8l0,0
	l9.4,9.4l0,0L77.3,161.9L77.3,161.9z M110.3,161.9l-1.2-1.2l-1.3,1.2H91.5l-1.3-1.2l-0.7,0.6l0.6-0.6l-7.1-7.1l-4.5,4.5l4.5-4.5
	l-9.4-9.4l-5.7,5.6l5.7-5.7l0,0l9.4-9.4l-7-7l-9.4,9.4l0,0l-4.9,4.9l0,0l4.9-4.9l-7.5-7.5l-0.6-3.2l8.1-8.1l-3.5-3.5l3.5,3.5l0,0
	l9.4,9.4l0,0l7,7l0,0l9.4,9.4l0,0l7,7l0,0l9.4,9.4l0,0L110.3,161.9L110.3,161.9z M143.3,161.9l-1.2-1.2l-1.2,1.2h-16.3l-1.2-1.2
	l-1.2,1.2h0l1.3-1.3l0,0l9.4-9.4l0,0l7-7l0,0l9.4-9.4l0,0l7-7l0,0l9.4-9.4l0,0l7-7l0,0l9.4-9.4l0,0l7-7l0,0l9.4-9.4l0.8-0.8h0
	l-0.8,0.8l9.4,9.4l0,0l0,0l-9.4,9.4l2.8,2.8l-2.8-2.8l-2.8,2.8l2.8-2.8l-9.4-9.4l-7,7l9.4,9.4l0,0l0,0l-9.4,9.4l3.9,3.9l-3.9-3.9
	l-7.1,7.1l3.9,3.9l-3.9-3.8l-9.4,9.4l5.5,5.5l-5.5-5.5l-7.1,7.1l3.5,3.5l-3.5-3.5l-9.4,9.4l6.3,6.4l-6.4-6.4l-7.1,7.1L143.3,161.9
	L143.3,161.9z M208,127.7l-9.4,9.4l0,0l0,0l-9.4-9.4l0,0l0,0l9.4-9.4h0l0,0L208,127.7L208,127.7L208,127.7z M176.3,161.9l-1.2-1.2
	l-1.3,1.2h-16.3l-1.2-1.2l-1.2,1.2l1.2-1.2l0,0l9.4-9.4v0l7-7l0,0l0,0l0,0l0,0l9.4-9.4h0l0,0l9.4,9.4l2.8-2.8l-2.8,2.8l4.2,4.2
	l-4.3-4.2l-9.4,9.4l0,0l0,0l-9.4-9.4l-7,7l9.4,9.4l2.4-2.3l-2.4,2.3L176.3,161.9L176.3,161.9z M208.9,161.9h-18.5l-1.2-1.2l0,0l0,0
	l9.4-9.4l0,0l0,0l10.4,10.4L208.9,161.9z M211.7,150.2l-6-6l0,0l0,0l9.4-9.4l0,0l0,0l0.2,0.2L211.7,150.2z M216.4,130.5l1.6-6.8
	l-1.6-1.6l1.6,1.6L216.4,130.5z M219.9,115.8l-4.8,4.9l0,0l0,0l-9.4-9.4l0,0l0,0l9.4-9.4l0,0v0l6.6,6.6L219.9,115.8z M224.4,97
	l-2.3-2.2l0,0l0,0l3.7-3.7L224.4,97z"/>
<polygon class="st0" points="92.6,144.2 83.1,153.6 90.2,160.7 99.6,151.2 "/>
<polygon class="st0" points="149.1,101.8 158.5,111.2 158.5,111.2 165.6,104.1 156.2,94.7 "/>
<polygon class="st0" points="182.1,120.6 172.7,111.2 165.6,118.3 175,127.7 "/>
<polygon class="st0" points="165.6,137.1 156.2,127.7 149.1,134.7 158.5,144.2 "/>
<polygon class="st0" points="139.7,144.2 132.6,151.2 142,160.7 149.1,153.6 "/>
</svg>
