<?xml version="1.0" encoding="utf-8"?>
<!-- Generator: Adobe Illustrator 21.0.2, SVG Export Plug-In . SVG Version: 6.00 Build 0)  -->
<svg version="1.1" id="Слой_1" xmlns="http://www.w3.org/2000/svg" xmlns:xlink="http://www.w3.org/1999/xlink" x="0px" y="0px"
	 viewBox="0 0 300 300" style="enable-background:new 0 0 300 300;" xml:space="preserve">
<style type="text/css">
	.st0{fill:#FFFFFF;}
</style>
<g>
	<g>
		<g>
			<path class="st0" d="M267.1,148c0-10.3-8.4-18.7-18.7-18.7h-43.3h-19.4c-0.5-2.1-0.7-4.3-0.3-6.5c1.1-6,5-17.8,11.3-28.8
				c4.6-8.1,6.5-46.6-2-52.4c-8.5-5.9-20.2-3.7-26.1,4.8L158.1,85L137,115.5c-3.8,5.5-23.5,28.3-23.5,28.3v102.3l32.8,9.5h58.8h13.8
				c10.3,0,18.7-8.4,18.7-18.7c0-2.4-0.5-4.7-1.3-6.8c8.2-2,14.3-9.3,14.3-18.2c0-5.5-2.4-10.3-6.1-13.7c8.6-1.7,15.1-9.3,15.1-18.4
				c0-5.5-2.4-10.4-6.2-13.8C261.3,163.8,267.1,156.6,267.1,148z"/>
		</g>
	</g>
	<g>
		<g>
			<rect x="33.9" y="134.9" class="st0" width="68.3" height="120.7"/>
		</g>
	</g>
</g>
</svg>
